<svg xmlns="http://www.w3.org/2000/svg" xmlns:xlink="http://www.w3.org/1999/xlink" viewBox="0 0 664.18 255.51"><defs><style>.cls-1{fill:url(#linear-gradient);}.cls-2{fill:url(#radial-gradient);}.cls-3{fill:url(#linear-gradient-2);}.cls-4{fill:none;stroke:#fff;}.cls-5{fill:url(#linear-gradient-3);}.cls-6{fill:#fff;}</style><linearGradient id="linear-gradient" x1="342.12" y1="294.24" x2="297" y2="38.36" gradientUnits="userSpaceOnUse"><stop offset="0" stop-color="#003c57"/><stop offset="0.39" stop-color="#003c9d"/><stop offset="0.8" stop-color="#003ce3"/><stop offset="1" stop-color="#003cff"/></linearGradient><radialGradient id="radial-gradient" cx="189.91" cy="18.96" r="18.96" gradientUnits="userSpaceOnUse"><stop offset="0" stop-color="#ff0"/><stop offset="1" stop-color="#ffbf00"/></radialGradient><linearGradient id="linear-gradient-2" x1="405.13" y1="76.61" x2="465.17" y2="273" gradientUnits="userSpaceOnUse"><stop offset="0.02" stop-color="#ffbf00"/><stop offset="0.12" stop-color="#f9b500"/><stop offset="0.3" stop-color="#e99900"/><stop offset="0.53" stop-color="#cf6d00"/><stop offset="0.81" stop-color="#ab3000"/><stop offset="1" stop-color="#8f0000"/></linearGradient><linearGradient id="linear-gradient-3" x1="200.99" y1="121.09" x2="254.47" y2="307.61" gradientUnits="userSpaceOnUse"><stop offset="0.11" stop-color="#ff7f00"/><stop offset="1" stop-color="#8f0000"/></linearGradient></defs><title>Asset 4</title><g id="Layer_2" data-name="Layer 2"><g id="Layer_1-2" data-name="Layer 1"><polyline class="cls-1" points="0 237.28 79.49 140.66 116.08 157.55 231.5 63.25 265.27 77.33 331.43 32.29 490.48 123.78 531.3 104.07 664.18 237.45"/><path class="cls-2" d="M171,19a19,19,0,1,1,19,18.95A19,19,0,0,1,171,19Z"/><path class="cls-3" d="M277.22,245.68s44.59-27.91,56.8-84.57v-38.6H444s-2.66,41.88,28.14,48.46c0,0,18.06,4.1,27.08-27.11h51s-1.59,6.57,9.56,13.14h12.21s12.21,64.06,64.26,87.88"/><path class="cls-4" d="M277.22,245.68s44.59-27.91,56.8-84.57v-38.6H444s-2.66,41.88,28.14,48.46c0,0,18.06,4.1,27.08-27.11h51s-1.59,6.57,9.56,13.14h12.21s12.21,64.06,64.26,87.88"/><path class="cls-5" d="M437.74,255.05S397.83,237.42,374,207.8H332.08s-20.74-5.28-21.52-22.56c0,0-13.3-6-13.69-16.22V146.8H266v35.62s-17.61,20.8-33.26-.71V159.14H222.12s-13.3,0-15.65-15.16H121.16s1.57,15.86-10.56,18.33h-20S82.08,225.5,41,254.77"/><path class="cls-4" d="M437.74,255.05S397.83,237.42,374,207.8H332.08s-20.74-5.28-21.52-22.56c0,0-13.3-6-13.69-16.22V146.8H266v35.62s-17.61,20.8-33.26-.71V159.14H222.12s-13.3,0-15.65-15.16H121.16s1.57,15.86-10.56,18.33h-20S82.08,225.5,41,254.77"/><polygon class="cls-6" points="342.89 57.95 351.78 69.8 343.31 65.14 338.03 68.31 336.12 75.09 331.05 67.68 325.76 68.95 333.37 61.97 339.09 61.97 342.89 57.95"/><polygon class="cls-6" points="292 70.21 313.24 62.56 331.93 43.87 354.87 55.77 332.78 54.07 316.64 73.61 307.29 68.51 292 70.21"/><polygon class="cls-6" points="233.56 74.14 258.55 86.63 241.51 84.36 223.34 93.45 219.93 84.36 233.56 74.14"/><polygon class="cls-6" points="216.3 87.37 215.71 95.52 212.61 93.77 205.43 102.32 209.31 92.22 216.3 87.37"/></g></g></svg>