<svg xmlns="http://www.w3.org/2000/svg" xmlns:xlink="http://www.w3.org/1999/xlink" viewBox="0 0 706 282.84"><defs><style>.cls-1,.cls-6,.cls-7{fill:none;}.cls-2{fill:#f2f2f2;}.cls-3{fill:url(#linear-gradient);}.cls-4{fill:url(#New_Gradient_Swatch_1);}.cls-5{fill:url(#linear-gradient-2);}.cls-6,.cls-7{stroke:#f2f2f2;}.cls-6{stroke-width:0.75px;}.cls-7{stroke-miterlimit:10;}</style><linearGradient id="linear-gradient" x1="179.16" y1="27.67" x2="222.82" y2="27.67" gradientUnits="userSpaceOnUse"><stop offset="0" stop-color="#ff0"/><stop offset="0.69" stop-color="#ffbf00"/></linearGradient><linearGradient id="New_Gradient_Swatch_1" x1="454.24" y1="105.49" x2="516.56" y2="309.3" gradientUnits="userSpaceOnUse"><stop offset="0.02" stop-color="#ffbf00"/><stop offset="0.12" stop-color="#f9b500"/><stop offset="0.3" stop-color="#e99900"/><stop offset="0.53" stop-color="#cf6d00"/><stop offset="0.81" stop-color="#ab3000"/><stop offset="1" stop-color="#8f0000"/></linearGradient><linearGradient id="linear-gradient-2" x1="225.56" y1="137.21" x2="280.64" y2="329.32" gradientUnits="userSpaceOnUse"><stop offset="0.11" stop-color="#ff7f00"/><stop offset="1" stop-color="#8f0000"/></linearGradient></defs><g id="Layer_4" data-name="Layer 4"><polyline class="cls-1" points="3.06 255.5 86.69 153.85 125.19 171.62 246.63 72.4 282.17 87.21 351.78 39.82 519.12 136.08 562.07 115.34 701.88 255.68"/><path class="cls-2" d="M699.65,257.91C629,230.05,561.42,119.16,561.42,119.16L519,139.65,351.92,43.54,282.53,90.78,247.16,76l-121.5,99.27L87.58,157.74s-16.49,53-82.08,99.77C65.22,208.1,85.8,150,85.8,150l38.93,18L246.1,68.76l35.71,14.88L351.64,36.1l167.61,96.41,43.47-21S621.08,211.45,699.65,257.91Z"/><path class="cls-3" d="M179.16,27.67A21.83,21.83,0,1,1,201,49.5,21.83,21.83,0,0,1,179.16,27.67Z"/><path class="cls-4" d="M594.87,172.46s-18.22,1.36-21.39-13.7H516.74l-.73,2.53c-7.93,27.43-22.46,24.86-23.07,24.74-27.56-5.88-25.5-44.58-25.48-45l.24-3.73H350.11s.93,31.38,0,41.87c-2.53,11.87-7.64,24.21-14.18,36a53.29,53.29,0,0,0,3.54,4.69,161.25,161.25,0,0,0,17.59-39.56c1.5-10.35.08-36,.08-36H460.39a76.74,76.74,0,0,0,2.72,19.29c4.56,16.16,14.36,26.28,28.31,29.26.85.19,20.43,4.24,30.56-27.12h45.28c7.67,14.83,22.32,13.19,22.32,13.19a158.74,158.74,0,0,0,12.34,33.2c12.91,25.66,31.42,44.57,53.51,54.68C655.43,266.85,604.71,234.07,594.87,172.46Z"/><path class="cls-5" d="M401.83,225.27l-1-1.3H358c-2.61-.79-17.8-5.93-18.39-19.1l-.1-2.13-1.94-.88c-3.12-1.42-11.27-6.53-11.57-13V163.36H288.35v37.49c-2.08,2.08-7.8,7.12-14.23,6.87-4.21-.16-8.19-2.64-11.87-7.36V175.63H248.31c-1.06,0-10.35-.5-12.15-12.12l-.45-2.95H144.14l.37,3.82c0,.13,1.12,12.36-7.41,14.4H114.61l-.41,3A178.67,178.67,0,0,1,105,216.21c-11.64,31-34.65,60.73-34.65,60.73,36.89-30.45,48-78.05,50.29-91.21h17.21l.34-.07c9.93-2,13-11.31,13.33-18.14h78.41c3.19,11.83,13.18,15.06,18.37,15.06h7v20.08l.67.91c5.18,7.12,11.21,10.86,17.92,11.1,11.47.44,20.22-9.76,20.59-10.2l.82-1V170.32h23.76v18.73c.37,9.7,9.7,15.92,13.79,18.19,2.27,17.88,22.91,23.35,23.82,23.58l.42.11h40.39c24,28.95,62,45.93,63.61,46.64C461.09,277.57,410.31,241.2,401.83,225.27Z"/><polygon class="cls-6" points="363.83 66.82 373.19 79.28 364.28 74.39 358.72 77.73 356.71 84.85 351.37 77.06 345.81 78.4 353.82 71.05 359.83 71.05 363.83 66.82"/><polygon class="cls-6" points="310.29 79.72 332.64 71.67 352.3 52.01 376.44 64.52 353.2 62.73 336.21 83.3 326.38 77.93 310.29 79.72"/><polygon class="cls-6" points="248.8 83.85 275.09 97 257.17 94.61 238.05 104.17 234.46 94.61 248.8 83.85"/><polygon class="cls-7" points="230.64 97.77 230.03 106.35 226.76 104.51 219.2 113.5 223.28 102.88 230.64 97.77"/></g></svg>