<svg xmlns="http://www.w3.org/2000/svg" xmlns:xlink="http://www.w3.org/1999/xlink" viewBox="0 0 665.77 381.3"><defs><style>.cls-1,.cls-6,.cls-7{fill:none;}.cls-18,.cls-2,.cls-8{fill:#f2f2f2;}.cls-3{fill:url(#linear-gradient);}.cls-4{fill:url(#New_Gradient_Swatch_1);}.cls-5{fill:url(#linear-gradient-2);}.cls-6,.cls-7{stroke:#f2f2f2;}.cls-6{stroke-width:0.75px;}.cls-7{stroke-miterlimit:10;}.cls-8{font-size:22.47px;letter-spacing:0.21em;}.cls-18,.cls-8{font-family:Lato-Bold, Lato;font-weight:700;}.cls-9{letter-spacing:0.26em;}.cls-10{letter-spacing:0.26em;}.cls-11{letter-spacing:0.24em;}.cls-12,.cls-17{letter-spacing:0.26em;}.cls-13{letter-spacing:0.24em;}.cls-14{letter-spacing:0.22em;}.cls-15{letter-spacing:0.23em;}.cls-16{letter-spacing:-0.01em;}.cls-17{fill:#e76e34;}.cls-18{font-size:95px;letter-spacing:0.05em;}</style><linearGradient id="linear-gradient" x1="187.61" y1="26.26" x2="229.1" y2="26.26" gradientUnits="userSpaceOnUse"><stop offset="0" stop-color="#ff0"/><stop offset="0.69" stop-color="#ffbf00"/></linearGradient><linearGradient id="New_Gradient_Swatch_1" x1="449.06" y1="100.22" x2="508.28" y2="293.93" gradientUnits="userSpaceOnUse"><stop offset="0.02" stop-color="#ffbf00"/><stop offset="0.12" stop-color="#f9b500"/><stop offset="0.3" stop-color="#e99900"/><stop offset="0.53" stop-color="#cf6d00"/><stop offset="0.81" stop-color="#ab3000"/><stop offset="1" stop-color="#8f0000"/></linearGradient><linearGradient id="linear-gradient-2" x1="231.71" y1="130.37" x2="284.06" y2="312.95" gradientUnits="userSpaceOnUse"><stop offset="0.11" stop-color="#ff7f00"/><stop offset="1" stop-color="#8f0000"/></linearGradient></defs><g id="Layer_1" data-name="Layer 1"><polyline class="cls-1" points="0 237.28 79.49 140.66 116.08 157.55 231.5 63.25 265.27 77.33 331.43 32.29 490.48 123.78 531.3 104.07 664.18 237.45"/><path class="cls-2" d="M682.3,245.08C615.16,218.6,550.92,113.21,550.92,113.21l-40.33,19.47L351.8,41.34,285.86,86.23l-33.62-14L136.77,166.58l-36.2-16.71s-15.68,50.35-78,94.83c56.75-47,76.32-102.22,76.32-102.22l37,17.08L251.23,65.3l33.94,14.15,66.37-45.19,159.3,91.64,41.31-20S607.62,200.92,682.3,245.08Z" transform="translate(-20.24 -5.51)"/><path class="cls-3" d="M187.61,26.26A20.75,20.75,0,1,1,208.36,47,20.75,20.75,0,0,1,187.61,26.26Z" transform="translate(-20.24 -5.51)"/><path class="cls-4" d="M582.72,163.86s-17.33,1.3-20.34-13H508.46l-.7,2.41c-7.54,26.07-21.35,23.63-21.93,23.52-26.19-5.59-24.23-42.38-24.21-42.74l.23-3.55H350.09s.88,29.82,0,39.8c-2.41,11.27-7.27,23-13.48,34.2a49.52,49.52,0,0,0,3.36,4.46,153.75,153.75,0,0,0,16.72-37.6c1.43-9.84.08-34.19.08-34.19H454.9a73.56,73.56,0,0,0,2.58,18.33c4.33,15.36,13.66,25,26.91,27.81.81.18,19.42,4,29.05-25.77h43c7.29,14.09,21.21,12.53,21.21,12.53a150.92,150.92,0,0,0,11.73,31.56c12.28,24.39,29.86,42.35,50.86,52C640.27,253.57,592.06,222.42,582.72,163.86Z" transform="translate(-20.24 -5.51)"/><path class="cls-5" d="M399.24,214.06l-1-1.24H357.59c-2.48-.74-16.91-5.63-17.48-18.15l-.09-2-1.84-.84c-3-1.35-10.71-6.2-11-12.37V155.22h-35.8v35.63c-2,2-7.41,6.77-13.52,6.53-4-.16-7.79-2.51-11.27-7V166.88H253.33c-1,0-9.83-.48-11.54-11.52l-.44-2.8h-87l.36,3.63c0,.12,1.06,11.75-7.05,13.68H126.26l-.39,2.86a170.21,170.21,0,0,1-8.77,32.72C106,234.94,84.18,263.17,84.18,263.17,119.24,234.23,129.8,189,132,176.48h16.36l.32-.07c9.44-1.92,12.31-10.74,12.67-17.24h74.52c3,11.24,12.53,14.32,17.46,14.32H260v19.08l.63.87c4.92,6.76,10.66,10.31,17,10.55,10.89.41,19.21-9.29,19.56-9.7l.78-.92V161.83h22.58v17.8c.35,9.22,9.21,15.14,13.1,17.29,2.16,17,21.77,22.19,22.64,22.41l.4.1h38.39C418,247,454,263.09,455.57,263.77,455.57,263.77,407.3,229.19,399.24,214.06Z" transform="translate(-20.24 -5.51)"/><polygon class="cls-6" points="342.89 57.95 351.78 69.8 343.31 65.14 338.03 68.32 336.12 75.09 331.05 67.68 325.76 68.95 333.37 61.97 339.09 61.97 342.89 57.95"/><polygon class="cls-6" points="292 70.21 313.24 62.56 331.93 43.87 354.87 55.77 332.78 54.07 316.64 73.61 307.29 68.51 292 70.21"/><polygon class="cls-6" points="233.56 74.14 258.55 86.63 241.51 84.36 223.34 93.45 219.93 84.36 233.56 74.14"/><polygon class="cls-7" points="216.3 87.37 215.71 95.52 212.61 93.78 205.43 102.32 209.31 92.22 216.3 87.37"/></g><g id="Layer_4" data-name="Layer 4"><text class="cls-8" transform="translate(12.07 278.86)">W<tspan class="cls-9" x="28.39" y="0">ASHIN</tspan><tspan class="cls-10" x="126.83" y="0">G</tspan><tspan class="cls-11" x="148.96" y="0">T</tspan><tspan class="cls-12" x="167.74" y="0">ON </tspan><tspan class="cls-13" x="226.2" y="0">C</tspan><tspan class="cls-12" x="246.56" y="0">OUNT</tspan><tspan class="cls-14" x="335.57" y="0">Y</tspan><tspan class="cls-9" x="355.06" y="0" xml:space="preserve"> SCHOO</tspan><tspan class="cls-15" x="476.4" y="0">L</tspan><tspan class="cls-12" x="493.24" y="0" xml:space="preserve"> DISTRIC</tspan><tspan class="cls-16" x="630.98" y="0">T</tspan></text><text class="cls-8" transform="translate(354.16 39.11) rotate(29.25)">W<tspan class="cls-9" x="28.39" y="0">ASH</tspan><tspan class="cls-17" x="91.17" y="0">K12</tspan></text><text class="cls-18" transform="translate(1.87 354.23)">INTERNSHIPS</text></g></svg>