<svg xmlns="http://www.w3.org/2000/svg" xmlns:xlink="http://www.w3.org/1999/xlink" viewBox="0 0 706 371"><defs><style>.cls-1,.cls-6,.cls-7{fill:none;}.cls-2{fill:#f2f2f2;}.cls-3{fill:url(#linear-gradient);}.cls-4{fill:url(#New_Gradient_Swatch_1);}.cls-5{fill:url(#linear-gradient-2);}.cls-6,.cls-7{stroke:#f2f2f2;}.cls-6{stroke-width:0.75px;}.cls-7{stroke-miterlimit:10;}</style><linearGradient id="linear-gradient" x1="191.89" y1="80.72" x2="233.37" y2="80.72" gradientUnits="userSpaceOnUse"><stop offset="0" stop-color="#ff0"/><stop offset="0.69" stop-color="#ffbf00"/></linearGradient><linearGradient id="New_Gradient_Swatch_1" x1="453.33" y1="154.68" x2="512.55" y2="348.39" gradientUnits="userSpaceOnUse"><stop offset="0.02" stop-color="#ffbf00"/><stop offset="0.12" stop-color="#f9b500"/><stop offset="0.3" stop-color="#e99900"/><stop offset="0.53" stop-color="#cf6d00"/><stop offset="0.81" stop-color="#ab3000"/><stop offset="1" stop-color="#8f0000"/></linearGradient><linearGradient id="linear-gradient-2" x1="235.98" y1="184.83" x2="288.34" y2="367.41" gradientUnits="userSpaceOnUse"><stop offset="0.11" stop-color="#ff7f00"/><stop offset="1" stop-color="#8f0000"/></linearGradient></defs><g id="Layer_4" data-name="Layer 4"><polyline class="cls-1" points="24.51 297.25 104 200.64 140.59 217.53 256.01 123.23 289.79 137.3 355.94 92.26 514.99 183.75 555.81 164.04 688.7 297.42"/><path class="cls-2" d="M686.57,299.54c-67.13-26.48-131.38-131.87-131.38-131.87l-40.32,19.47L356.08,95.8l-65.95,44.9-33.61-14L141,221l-36.2-16.71s-15.67,50.35-78,94.83C83.59,252.2,103.15,197,103.15,197l37,17.07L255.5,119.77l33.94,14.14,66.37-45.19,159.3,91.64,41.32-20S611.9,255.38,686.57,299.54Z"/><path class="cls-3" d="M191.89,80.72a20.74,20.74,0,1,1,20.74,20.74A20.73,20.73,0,0,1,191.89,80.72Z"/><path class="cls-4" d="M587,218.33s-17.33,1.29-20.33-13H512.73l-.7,2.42c-7.54,26.06-21.34,23.62-21.93,23.51-26.18-5.59-24.23-42.38-24.21-42.74l.23-3.55H354.36s.88,29.82,0,39.8c-2.4,11.27-7.26,23-13.48,34.2a51.47,51.47,0,0,0,3.36,4.46A153.76,153.76,0,0,0,361,225.8c1.42-9.84.07-34.19.07-34.19h98.13a73.5,73.5,0,0,0,2.58,18.33c4.34,15.36,13.66,25,26.92,27.81.8.18,19.41,4,29-25.77h43A22.16,22.16,0,0,0,582,224.52a150.31,150.31,0,0,0,11.73,31.55c12.27,24.39,29.86,42.36,50.85,52C644.54,308,596.34,276.88,587,218.33Z"/><path class="cls-5" d="M403.52,268.52l-1-1.23H361.87c-2.49-.75-16.92-5.64-17.48-18.16l-.1-2-1.84-.84c-3-1.35-10.71-6.2-11-12.37V209.68h-35.8v35.63c-2,2-7.41,6.77-13.53,6.53-4-.15-7.78-2.51-11.27-7V221.34H257.6c-1,0-9.83-.47-11.54-11.52l-.43-2.8h-87l.35,3.63c0,.12,1.07,11.75-7,13.68H130.54l-.39,2.86a170.21,170.21,0,0,1-8.77,32.72c-11.06,29.5-32.93,57.72-32.93,57.72,35.06-28.94,45.62-74.18,47.79-86.69H152.6l.33-.07c9.43-1.91,12.31-10.74,12.67-17.24h74.52c3,11.24,12.52,14.32,17.46,14.32h6.67V247l.63.87c4.93,6.76,10.66,10.32,17,10.55,10.9.41,19.22-9.28,19.57-9.7l.78-.92V216.29h22.58v17.8c.35,9.22,9.22,15.14,13.1,17.3,2.16,17,21.78,22.18,22.64,22.4l.4.11h38.39c22.85,27.51,58.92,43.65,60.46,44.33C459.84,318.23,411.57,283.66,403.52,268.52Z"/><polygon class="cls-6" points="367.4 117.93 376.29 129.77 367.83 125.12 362.54 128.29 360.64 135.06 355.56 127.66 350.27 128.93 357.89 121.95 363.6 121.95 367.4 117.93"/><polygon class="cls-6" points="316.51 130.19 337.75 122.54 356.44 103.85 379.38 115.74 357.29 114.04 341.15 133.58 331.8 128.49 316.51 130.19"/><polygon class="cls-6" points="258.07 134.11 283.06 146.61 266.02 144.34 247.85 153.42 244.44 144.34 258.07 134.11"/><polygon class="cls-7" points="240.81 147.34 240.23 155.5 237.12 153.75 229.94 162.29 233.82 152.2 240.81 147.34"/></g></svg>